{"title":"Naruto Shippuden 342 [1080p] [x265] [HE-AACv2] [Eng-Sub] [jnx_r]","uid":9449730,"size":331359909,"categoryP":"video","categoryS":"hd___tv_shows","magnet":"?xt=urn:btih:a20398b13b8ecc9113da6625cc1bb956da2aead4&amp;dn=Naruto+Shippuden+342+%5B1080p%5D+%5Bx265%5D+%5BHE-AACv2%5D+%5BEng-Sub%5D+%5Bjnx_r%5D&amp;tr=udp%3A%2F%2Ftracker.openbittorrent.com%3A80&amp;tr=udp%3A%2F%2Fopen.demonii.com%3A1337&amp;tr=udp%3A%2F%2Ftracker.coppersurfer.tk%3A6969&amp;tr=udp%3A%2F%2Fexodus.desync.com%3A6969","seeders":1,"leechers":2,"uploader":"jnx_r","files":4,"time":1389156422,"description":"Sorry for the late upload; I thoroughly enjoyed my holidays, and did not have enough time to get stuff done.\n\n------------------\n\nGeneral\nUnique ID : 219966760668812333066985876742533046768 (0xA57C0E9F09256BD2876638E250E861F0)\nComplete name : Naruto Shippuuden - 342 [1080p] [x265.HE-AACv2] [jnx_r].mkv\nFormat : Matroska\nFormat version : Version 4 / Version 2\nFile size : 316 MiB\nDuration : 23mn 9s\nOverall bit rate : 1 907 Kbps\nEncoded date : UTC 2014-01-08 02:52:05\nWriting application : mkvmerge v6.2.0 ('Promised Land Rovi v1.0.4') built on Aug 29 2013 13:59:38\nWriting library : libebml v1.3.0 + libmatroska v1.4.0\n\nVideo\nID : 1\nFormat : HEVC\nFormat/Info : High Efficiency Video Coding\nFormat profile : &lt;a class=&quot;__cf_email__&quot; href=&quot;/cdn-cgi/l/email-protection&quot; data-cfemail=&quot;e9a4888087a9a5d8dbc7d9&quot;&gt;[email&amp;#160;protected]&lt;/a&gt;&lt;script cf-hash='f9e31' type=&quot;text/javascript&quot;&gt;\n/* &lt;![CDATA[ */!function(){try{var t=&quot;currentScript&quot;in document?document.currentScript:function(){for(var t=document.getElementsByTagName(&quot;script&quot;),e=t.length;e--;)if(t[e].getAttribute(&quot;cf-hash&quot;))return t[e]}();if(t&amp;&amp;t.previousSibling){var e,r,n,i,c=t.previousSibling,a=c.getAttribute(&quot;data-cfemail&quot;);if(a){for(e=&quot;&quot;,r=parseInt(a.substr(0,2),16),n=2;a.length-n;n+=2)i=parseInt(a.substr(n,2),16)^r,e+=String.fromCharCode(i);e=document.createTextNode(e),c.parentNode.replaceChild(e,c)}}}catch(u){}}();/* ]]&gt; */&lt;/script&gt;\nCodec ID : hvc1\nCodec ID/Info : High Efficiency Video Coding\nDuration : 23mn 9s\nBit rate : 1 745 Kbps\nMaximum bit rate : 9 125 Kbps\nWidth : 1 920 pixels\nHeight : 1 080 pixels\nDisplay aspect ratio : 16:9\nFrame rate mode : Constant\nFrame rate : 23.976 fps\nColor space : YUV\nChroma subsampling : 4:2:0\nBit depth : 8 bits\nBits/(Pixel*Frame) : 0.035\nStream size : 289 MiB (93%)\nEncoded date : UTC 2014-01-04 03:56:50\nTagged date : UTC 2014-01-04 03:56:56\n\nAudio\nID : 2\nFormat : AAC [High Efficiency AAC v2]\nFormat/Info : Advanced Audio Codec\nFormat profile : LC\nCodec ID : A_AAC\nFile size : 26.7 MiB\nDuration : 23mn 9s\nBit rate mode : Variable\nBit rate : 159 Kbps\nMaximum bit rate : 247 Kbps\nOverall bit rate mode : Variable\nOverall bit rate : 161 Kbps\nChannel count : 2 channels\nChannel positions : Front: L R\nSampling rate : 48.0 KHz\nCompression mode : Lossy\nStream size : 26.4 MiB (99%)\nDelay relative to video : 9ms\nTitle : HE-AAC v2 encoded by jnx_r\nLanguage : Japanese\nDefault : Yes\nForced : No\nWriting library : Nero AAC codec 1.5.4.0\nEncoding settings : -br 160000\nEncoded date : UTC 2013-12-14 18:09:12\n\n\nText\nID : 3\nFormat : ASS\nCodec ID : S_TEXT/ASS\nCodec ID/Info : Advanced Sub Station Alpha\nCompression mode : Lossless\nTitle : CR - English\nLanguage : English\nDefault : Yes\nForced : No\n\nMenu\n00:00:00.000 : en:Part I\n00:02:08.275 : en:Opening\n00:03:38.275 : en:Part II\n00:21:05.368 : en:Ending\n00:22:35.250 : en:Preview\n\n-------------------------------------------\nPlayback notes:\n-------------------------------------------\n\nTested with MPC(HC &amp; BE) v1.7.1 [32 &amp; 64 bit] (K-lite &amp; CCCP) and VLC 2.1.1 and 2.1.2.\n\nConfigs tested:\n~i7 2600 + GTX 540\n~core 2 Quad + AMD Radeon 5850\n\nCpu usage for 1080p playback&gt;&gt; ~50-85% in Quad core, 20-50% in i7\nCpu usage for 720p playback&gt;&gt; ~25-65% in Quad core, 10-30% in i7\n\nI'm guessing that it will not playback fluently on anything lower than quadcore due to the CPU usage level in quad core itself.\nSo if you've got anything lower than a quad core, or an i5 system, then it would be wise to skip all x265-1080p rips for now.\n\n-CCCP flawless playback, no issues with the 27th Nov release.\n-K-lite codec pack seems to be dropping frames but it can be re-configured.\n-64 bit version of MPC-HC needs to be configured correctly for flawless playback.\n-VLC may have issues with seeking; other than that, playback itself is flawless.\n\nSo all things considered I would recommend CCCP's configuration atm.\n\nCombined Community Codec Pack + Media Player - Classic Home Cinema Link: &lt;a href=&quot;\nhttp://www.cccp-project.net/&quot; rel=&quot;nofollow&quot; target=&quot;_NEW&quot;&gt;\nhttp://www.cccp-project.net/&lt;/a&gt;\n\nVLC media player link: &lt;a href=&quot;\nhttp://www.videolan.org/vlc/index.html&quot; rel=&quot;nofollow&quot; target=&quot;_NEW&quot;&gt;\nhttp://www.videolan.org/vlc/index.html&lt;/a&gt;\n\n\n----------------------------------------------\n~~Thank you for downloading!~~\n----------------------------------------------\n\nPS: Seed, rate, comment, and share!\n\nregards,\n-jnx_r","torrent":{"xt":"urn:btih:a20398b13b8ecc9113da6625cc1bb956da2aead4","amp;dn":"Naruto+Shippuden+342+%5B1080p%5D+%5Bx265%5D+%5BHE-AACv2%5D+%5BEng-Sub%5D+%5Bjnx_r%5D","amp;tr":["udp%3A%2F%2Ftracker.openbittorrent.com%3A80","udp%3A%2F%2Fopen.demonii.com%3A1337","udp%3A%2F%2Ftracker.coppersurfer.tk%3A6969","udp%3A%2F%2Fexodus.desync.com%3A6969"],"infoHash":"a20398b13b8ecc9113da6625cc1bb956da2aead4","infoHashBuffer":{"type":"Buffer","data":[162,3,152,177,59,142,204,145,19,218,102,37,204,27,185,86,218,42,234,212]},"announce":[],"urlList":[]}}